HIERARCHY
ROOT reference
{
  OFFSET 0 0 0
  CHANNELS 6 Xposition Yposition Zposition Zrotation Xrotation Yrotation
  JOINT Hips
  {
    OFFSET 370.543 87.5 183.721
    CHANNELS 3 Zrotation Xrotation Yrotation
    JOINT RightUpLeg
    {
      OFFSET -9.29072 -1.53718 -0.00769521
      CHANNELS 3 Zrotation Xrotation Yrotation
      JOINT RightLeg
      {
        OFFSET 0.000649198 -41.8926 0.0287464
        CHANNELS 3 Zrotation Xrotation Yrotation
        JOINT RightFoot
        {
          OFFSET -0.131981 -42.8927 0.241786
          CHANNELS 3 Zrotation Xrotation Yrotation
          End Site
          {
            OFFSET 0 -7.69 17.5
          }
        }
      }
    }
    JOINT LeftUpLeg
    {
      OFFSET 9.29816 -1.6623 -0.0330144
      CHANNELS 3 Zrotation Xrotation Yrotation
      JOINT LeftLeg
      {
        OFFSET 0.0555409 -41.8801 -0.0492089
        CHANNELS 3 Zrotation Xrotation Yrotation
        JOINT LeftFoot
        {
          OFFSET 0.737583 -41.1094 -0.206555
          CHANNELS 3 Zrotation Xrotation Yrotation
          End Site
          {
            OFFSET 0 -7.69 17.5
          }
        }
      }
    }
    JOINT Spine
    {
      OFFSET 0.0742767 14.2946 0.0485675
      CHANNELS 3 Zrotation Xrotation Yrotation
      JOINT Spine1
      {
        OFFSET 0.0332084 9.70841 0.0159593
        CHANNELS 3 Zrotation Xrotation Yrotation
        JOINT Spine2
        {
          OFFSET 0.0388468 10.1231 0.00288192
          CHANNELS 3 Zrotation Xrotation Yrotation
          JOINT Spine3
          {
            OFFSET 0.0300771 9.71993 0.00776905
            CHANNELS 3 Zrotation Xrotation Yrotation
            JOINT Neck
            {
              OFFSET 0.058413 10.382 0.0516165
              CHANNELS 3 Zrotation Xrotation Yrotation
              JOINT Head
              {
                OFFSET 0.0298281 9.47849 0.0268718
                CHANNELS 3 Zrotation Xrotation Yrotation
                End Site
                {
                  OFFSET 0 15.95 0
                }
              }
            }
            JOINT RightShoulder
            {
              OFFSET -3.15612 6.91385 0.0353801
              CHANNELS 3 Zrotation Xrotation Yrotation
              JOINT RightArm
              {
                OFFSET -12.7781 -0.0057607 0.0332486
                CHANNELS 3 Zrotation Xrotation Yrotation
                JOINT RightForeArm
                {
                  OFFSET -26.4999 -0.0425897 0.0409183
                  CHANNELS 3 Zrotation Xrotation Yrotation
                  JOINT RightHand
                  {
                    OFFSET -25.993 -0.0294641 0.00108206
                    CHANNELS 3 Zrotation Xrotation Yrotation
                    JOINT RightHandThumb1
                    {
                      OFFSET -2.48905 0.190105 3.12053
                      CHANNELS 3 Zrotation Xrotation Yrotation
                      JOINT RightHandThumb2
                      {
                        OFFSET -3.68274 0 0
                        CHANNELS 3 Zrotation Xrotation Yrotation
                        JOINT RightHandThumb3
                        {
                          OFFSET -2.55832 0 0
                          CHANNELS 3 Zrotation Xrotation Yrotation
                          End Site
                          {
                            OFFSET -2.194 0 0
                          }
                        }
                      }
                    }
                    JOINT RightInHandIndex
                    {
                      OFFSET -3.22368 0.508421 1.97842
                      CHANNELS 3 Zrotation Xrotation Yrotation
                      JOINT RightHandIndex1
                      {
                        OFFSET -5.21684 -0.091368 0.999158
                        CHANNELS 3 Zrotation Xrotation Yrotation
                        JOINT RightHandIndex2
                        {
                          OFFSET -3.61937 0 0
                          CHANNELS 3 Zrotation Xrotation Yrotation
                          JOINT RightHandIndex3
                          {
                            OFFSET -2.0521 0 0
                            CHANNELS 3 Zrotation Xrotation Yrotation
                            End Site
                            {
                              OFFSET -1.805 0 0
                            }
                          }
                        }
                      }
                    }
                    JOINT RightInHandMiddle
                    {
                      OFFSET -3.38211 0.517263 0.756737
                      CHANNELS 3 Zrotation Xrotation Yrotation
                      JOINT RightHandMiddle1
                      {
                        OFFSET -5.17411 -0.084 0.313895
                        CHANNELS 3 Zrotation Xrotation Yrotation
                        JOINT RightHandMiddle2
                        {
                          OFFSET -3.94947 0 0
                          CHANNELS 3 Zrotation Xrotation Yrotation
                          JOINT RightHandMiddle3
                          {
                            OFFSET -2.47579 0 0
                            CHANNELS 3 Zrotation Xrotation Yrotation
                            End Site
                            {
                              OFFSET -1.975 0 0
                            }
                          }
                        }
                      }
                    }
                    JOINT RightInHandRing
                    {
                      OFFSET -3.36516 0.537895 -0.128947
                      CHANNELS 3 Zrotation Xrotation Yrotation
                      JOINT RightHandRing1
                      {
                        OFFSET -4.63474 -0.022105 -0.478947
                        CHANNELS 3 Zrotation Xrotation Yrotation
                        JOINT RightHandRing2
                        {
                          OFFSET -3.44238 0 0
                          CHANNELS 3 Zrotation Xrotation Yrotation
                          JOINT RightHandRing3
                          {
                            OFFSET -2.3881 0 0
                            CHANNELS 3 Zrotation Xrotation Yrotation
                            End Site
                            {
                              OFFSET -1.857 0 0
                            }
                          }
                        }
                      }
                    }
                    JOINT RightInHandPinky
                    {
                      OFFSET -3.16105 0.469368 -1.20179
                      CHANNELS 3 Zrotation Xrotation Yrotation
                      JOINT RightHandPinky1
                      {
                        OFFSET -4.14105 -0.022105 -1.09053
                        CHANNELS 3 Zrotation Xrotation Yrotation
                        JOINT RightHandPinky2
                        {
                          OFFSET -2.75653 0 0
                          CHANNELS 3 Zrotation Xrotation Yrotation
                          JOINT RightHandPinky3
                          {
                            OFFSET -1.74189 0 0
                            CHANNELS 3 Zrotation Xrotation Yrotation
                            End Site
                            {
                              OFFSET -1.645 0 0
                            }
                          }
                        }
                      }
                    }
                  }
                }
              }
            }
            JOINT LeftShoulder
            {
              OFFSET 3.24463 6.9123 -0.0189685
              CHANNELS 3 Zrotation Xrotation Yrotation
              JOINT LeftArm
              {
                OFFSET 12.8793 -0.0485389 -0.0634723
                CHANNELS 3 Zrotation Xrotation Yrotation
                JOINT LeftForeArm
                {
                  OFFSET 26.4894 0.00252616 -0.136149
                  CHANNELS 3 Zrotation Xrotation Yrotation
                  JOINT LeftHand
                  {
                    OFFSET 26.005 0.0292639 -0.0166184
                    CHANNELS 3 Zrotation Xrotation Yrotation
                    JOINT LeftHandThumb1
                    {
                      OFFSET 2.48905 0.190105 3.12053
                      CHANNELS 3 Zrotation Xrotation Yrotation
                      JOINT LeftHandThumb2
                      {
                        OFFSET 3.68274 0 0
                        CHANNELS 3 Zrotation Xrotation Yrotation
                        JOINT LeftHandThumb3
                        {
                          OFFSET 2.55832 0 0
                          CHANNELS 3 Zrotation Xrotation Yrotation
                          End Site
                          {
                            OFFSET 2.194 0 0
                          }
                        }
                      }
                    }
                    JOINT LeftInHandIndex
                    {
                      OFFSET 3.22368 0.508421 1.97842
                      CHANNELS 3 Zrotation Xrotation Yrotation
                      JOINT LeftHandIndex1
                      {
                        OFFSET 5.21684 -0.091368 0.999158
                        CHANNELS 3 Zrotation Xrotation Yrotation
                        JOINT LeftHandIndex2
                        {
                          OFFSET 3.61937 0 0
                          CHANNELS 3 Zrotation Xrotation Yrotation
                          JOINT LeftHandIndex3
                          {
                            OFFSET 2.0521 0 0
                            CHANNELS 3 Zrotation Xrotation Yrotation
                            End Site
                            {
                              OFFSET 1.805 0 0
                            }
                          }
                        }
                      }
                    }
                    JOINT LeftInHandMiddle
                    {
                      OFFSET 3.38211 0.517263 0.756737
                      CHANNELS 3 Zrotation Xrotation Yrotation
                      JOINT LeftHandMiddle1
                      {
                        OFFSET 5.17411 -0.084 0.313895
                        CHANNELS 3 Zrotation Xrotation Yrotation
                        JOINT LeftHandMiddle2
                        {
                          OFFSET 3.94947 0 0
                          CHANNELS 3 Zrotation Xrotation Yrotation
                          JOINT LeftHandMiddle3
                          {
                            OFFSET 2.47579 0 0
                            CHANNELS 3 Zrotation Xrotation Yrotation
                            End Site
                            {
                              OFFSET 1.975 0 0
                            }
                          }
                        }
                      }
                    }
                    JOINT LeftInHandRing
                    {
                      OFFSET 3.36516 0.537895 -0.128947
                      CHANNELS 3 Zrotation Xrotation Yrotation
                      JOINT LeftHandRing1
                      {
                        OFFSET 4.63474 -0.022105 -0.478947
                        CHANNELS 3 Zrotation Xrotation Yrotation
                        JOINT LeftHandRing2
                        {
                          OFFSET 3.44238 0 0
                          CHANNELS 3 Zrotation Xrotation Yrotation
                          JOINT LeftHandRing3
                          {
                            OFFSET 2.3881 0 0
                            CHANNELS 3 Zrotation Xrotation Yrotation
                            End Site
                            {
                              OFFSET 1.857 0 0
                            }
                          }
                        }
                      }
                    }
                    JOINT LeftInHandPinky
                    {
                      OFFSET 3.16105 0.469368 -1.20179
                      CHANNELS 3 Zrotation Xrotation Yrotation
                      JOINT LeftHandPinky1
                      {
                        OFFSET 4.14105 -0.022105 -1.09053
                        CHANNELS 3 Zrotation Xrotation Yrotation
                        JOINT LeftHandPinky2
                        {
                          OFFSET 2.75653 0 0
                          CHANNELS 3 Zrotation Xrotation Yrotation
                          JOINT LeftHandPinky3
                          {
                            OFFSET 1.74189 0 0
                            CHANNELS 3 Zrotation Xrotation Yrotation
                            End Site
                            {
                              OFFSET 1.645 0 0
                            }
                          }
                        }
                      }
                    }
                  }
                }
              }
            }
          }
        }
      }
    }
  }
}
MOTION
Frames: 2
Frame Time: 0.00833333
1.050000000000000000e+03 0.000000000000000000e+00 0.000000000000000000e+00 0.000000000000000000e+00 0.000000000000000000e+00 0.000000000000000000e+00 1.896928850832898306e+01 6.362532078754112419e+00 -1.054090375707767748e+02 1.326266939954302870e+01 -4.143974928434467131e+01 8.569360123834950826e+00 -5.442954716505246537e+00 1.981705459511798395e+01 -6.809658795400029163e+00 1.311590848400272691e+01 9.699296670372710594e+00 4.094545049883413412e+01 2.136158682940288145e+01 -2.748903499698625197e+01 8.672984937812680428e+00 -6.909113680742912322e+00 4.382756731617219970e+01 8.987963300867470195e+00 1.857138903165254540e+00 -1.731292069627011543e+01 4.512443720775188183e+00 1.075582512503649557e+00 7.082543029939574630e+00 -2.398311921466042662e+00 3.378173445475481929e-01 1.706105667310329199e+00 -4.644528795182969461e-01 5.237571285037786462e-01 2.678885807001253561e+00 -7.085998179537789099e-01 -6.913058470068903505e-01 -2.846993314539812969e-01 1.422018032737358384e+00 -8.005140448047453061e-01 -3.519221082200981066e+00 1.713692056197503533e+01 -1.141886910212197748e+01 3.600727041036156262e+00 1.679524386105455136e+01 -3.067064704621399240e+00 -5.619416097630672624e+00 1.275759268095250043e+01 6.311456059584957501e+01 -3.786557305556716102e+01 2.829226732425128432e+01 4.136261833575778724e+01 -7.188955366471549091e+00 7.671876274544285934e+01 1.190277045857723337e+01 -2.296769791618382328e+01 3.722529303029554093e+00 2.818400000000000105e+01 1.072940000000000005e+01 1.915919999999999845e+01 2.228131784085232411e-15 3.097505454108229968e-15 -1.000000000000000000e+01 1.058943275889356271e-14 2.816646646161113655e-16 -1.000000000000000000e+01 8.613067291684490038e-15 -4.430738313391223691e-16 2.193656269923279051e-15 1.998179999999999978e+01 8.718970000000000331e-01 2.396399999999999864e+00 2.400000000000000000e+01 -2.594686112259099504e-15 -1.399223192018599390e-14 2.000000000000000000e+01 -8.666419868209407372e-15 -6.227670462757001020e-16 8.613067291684490038e-15 -4.430738313391223691e-16 2.193656269923279051e-15 2.000000000000000000e+01 -3.767306764061446294e-15 9.725838778508740213e-15 2.400000000000000000e+01 4.080371251979642940e-16 -1.935268929638901075e-15 2.000000000000000000e+01 6.536609654326851966e-15 2.106233971566521549e-15 8.613067291684490038e-15 -4.430738313391223691e-16 2.193656269923279051e-15 1.997479999999999833e+01 -1.025649999999999951e+00 -2.819380000000000219e+00 2.400000000000000000e+01 1.076693128702548929e-14 -7.291424557249395486e-15 2.000000000000000000e+01 4.015495067897307794e-15 6.850818330094250602e-15 8.613067291684490038e-15 -4.430738313391223691e-16 2.193656269923279051e-15 1.978150000000000119e+01 -3.009479999999999933e+00 -8.305149999999999366e+00 2.400000000000000000e+01 2.997820860357910247e-15 -4.992321899240768995e-16 2.000000000000000000e+01 5.341862902141460610e-15 7.768964736266086119e-15 1.182764866172800211e+01 -2.029507833538100314e+01 -4.622547021266721856e+01 -4.370433015064241289e+01 2.009696613623080452e+01 -8.161178629543722707e+01 1.741216466514251593e+01 -1.577684305791213681e+01 -2.248021002950854808e+01 -2.946033856919340010e+01 -1.172446416833295402e+01 -8.962881923755517732e+00 -2.818400000000000105e+01 1.072940000000000005e+01 -1.915919999999999845e+01 -4.874449720973154793e-15 5.034681773976032979e-15 1.000000000000000000e+01 -8.164994259681535470e-15 -1.447294616715937196e-15 1.000000000000000000e+01 1.845008574301303370e-15 -6.281541961354085611e-15 -2.788353197187628293e-15 -1.998179999999999978e+01 8.718970000000000331e-01 -2.396399999999999864e+00 -2.400000000000000000e+01 -8.432918815650176780e-15 4.467170982847477247e-15 -2.000000000000000000e+01 -3.298541587187230123e-16 1.483255674559386826e-14 1.845008574301303370e-15 -6.281541961354085611e-15 -2.788353197187628293e-15 -2.000000000000000000e+01 -1.212926667762649955e-14 2.328955908795594138e-14 -2.400000000000000000e+01 -8.090595683093279559e-16 6.958030010124090167e-15 -2.000000000000000000e+01 1.511246190349109555e-15 9.772943625131870663e-15 1.845008574301303370e-15 -6.281541961354085611e-15 -2.788353197187628293e-15 -1.997479999999999833e+01 -1.025649999999999951e+00 2.819380000000000219e+00 -2.400000000000000000e+01 2.856357800297222412e-15 8.165125556741839022e-15 -2.000000000000000000e+01 -2.487593251101501239e-16 -2.124138241509725314e-15 1.845008574301303370e-15 -6.281541961354085611e-15 -2.788353197187628293e-15 -1.978150000000000119e+01 -3.009479999999999933e+00 8.305149999999999366e+00 -2.400000000000000000e+01 -3.294847847661578709e-15 1.565912579558598804e-14 -2.000000000000000000e+01 3.194247933413805197e-15 1.006395334186020340e-14
1.050000000000000000e+03 0.000000000000000000e+00 0.000000000000000000e+00 0.000000000000000000e+00 0.000000000000000000e+00 0.000000000000000000e+00 1.886099971772186379e+01 6.349230621252269557e+00 -1.048977928730548683e+02 1.316396692319500161e+01 -4.111634994002879750e+01 8.492170239241428220e+00 -5.422467980173537150e+00 1.976742072479141399e+01 -6.834257350382346274e+00 1.305745902669341696e+01 9.755438544303954629e+00 4.083623434955086395e+01 2.113224014053314193e+01 -2.742145060102276943e+01 8.430154211311618795e+00 -6.781378180992538418e+00 4.379110933996553001e+01 8.849745288560137979e+00 1.853337391217721120e+00 -1.726913071236381469e+01 4.305195685892229562e+00 1.130708050667036613e+00 7.057542123390097899e+00 -2.295248831317479699e+00 3.514057470341340750e-01 1.695733370057929346e+00 -4.361167722569128102e-01 5.461703419351742195e-01 2.659955353316802107e+00 -6.652199467356387785e-01 -6.844360031866996152e-01 -2.795437960786291143e-01 1.403242746203766433e+00 -7.846075623968358226e-01 -3.508318888087583964e+00 1.693155297891910394e+01 -1.129404729529630558e+01 3.694306698436505165e+00 1.655407718164283892e+01 -3.069726956771035020e+00 -5.667026232475203429e+00 1.280007692701756383e+01 6.294359326123465337e+01 -3.764776663541191226e+01 2.849604031820995687e+01 4.100770490682611324e+01 -7.013662126456154056e+00 7.659632384518675963e+01 1.188015484435971914e+01 -2.293560636426685306e+01 3.841730690598998521e+00 2.818400000000000105e+01 1.072940000000000005e+01 1.915919999999999845e+01 2.237100737785349400e-15 3.098547078526832989e-15 -1.000000000000000000e+01 1.060410803456236345e-14 2.981323966931002490e-16 -1.000000000000000000e+01 8.600412622996230171e-15 -4.345575230861784364e-16 2.178641463950749096e-15 1.998179999999999978e+01 8.718970000000000331e-01 2.396399999999999864e+00 2.400000000000000000e+01 -2.588823449463999286e-15 -1.397202736535587216e-14 2.000000000000000000e+01 -8.690223796732097491e-15 -6.311099429971605783e-16 8.600412622996230171e-15 -4.345575230861784364e-16 2.178641463950749096e-15 2.000000000000000000e+01 -3.764826330961252998e-15 9.731021235484458294e-15 2.400000000000000000e+01 4.076252715779751757e-16 -1.943192811249533797e-15 2.000000000000000000e+01 6.543954673566603559e-15 2.093495090883873576e-15 8.600412622996230171e-15 -4.345575230861784364e-16 2.178641463950749096e-15 1.997479999999999833e+01 -1.025649999999999951e+00 -2.819380000000000219e+00 2.400000000000000000e+01 1.078727835855708656e-14 -7.297432351490989222e-15 2.000000000000000000e+01 4.012237900136944948e-15 6.850963088495881116e-15 8.600412622996230171e-15 -4.345575230861784364e-16 2.178641463950749096e-15 1.978150000000000119e+01 -3.009479999999999933e+00 -8.305149999999999366e+00 2.400000000000000000e+01 2.987052240359718092e-15 -5.022550681780950732e-16 2.000000000000000000e+01 5.361681925604289970e-15 7.762869973093146354e-15 1.178203682678936914e+01 -2.026548564857737134e+01 -4.611017761338804632e+01 -4.385098748627174814e+01 1.994214962911787126e+01 -8.144234258402322268e+01 1.713759841059419031e+01 -1.588501998900529166e+01 -2.317516836544640313e+01 -2.947120237940106691e+01 -1.167325180010739238e+01 -9.094877039754653225e+00 -2.818400000000000105e+01 1.072940000000000005e+01 -1.915919999999999845e+01 -4.858658023655808933e-15 5.051491075043415919e-15 1.000000000000000000e+01 -8.162772391186761827e-15 -1.430103946221434149e-15 1.000000000000000000e+01 1.850617857504736789e-15 -6.263593695885008661e-15 -2.772684814242985649e-15 -1.998179999999999978e+01 8.718970000000000331e-01 -2.396399999999999864e+00 -2.400000000000000000e+01 -8.427101908700477541e-15 4.491615898904670728e-15 -2.000000000000000000e+01 -3.278517091915336139e-16 1.482892118742444029e-14 1.850617857504736789e-15 -6.263593695885008661e-15 -2.772684814242985649e-15 -2.000000000000000000e+01 -1.212294413679768204e-14 2.329282190861446300e-14 -2.400000000000000000e+01 -8.090171796402816898e-16 6.976360859283141850e-15 -2.000000000000000000e+01 1.520795785274506783e-15 9.792432597599440231e-15 1.850617857504736789e-15 -6.263593695885008661e-15 -2.772684814242985649e-15 -1.997479999999999833e+01 -1.025649999999999951e+00 2.819380000000000219e+00 -2.400000000000000000e+01 2.847059370893843575e-15 8.184038248111878659e-15 -2.000000000000000000e+01 -2.401216862096782495e-16 -2.117946697710813842e-15 1.850617857504736789e-15 -6.263593695885008661e-15 -2.772684814242985649e-15 -1.978150000000000119e+01 -3.009479999999999933e+00 8.305149999999999366e+00 -2.400000000000000000e+01 -3.304477611380677414e-15 1.567075920578176668e-14 -2.000000000000000000e+01 3.184470409001635170e-15 1.008317190207257403e-14
